Coordinates
version=1
nRows=28
nColumns=23
inDegrees=yes

Units are S.I. units (second, meters, Newtons, ...)
If the header above contains a line with 'inDegrees', this indicates whether rotational values are in degrees (yes) or radians (no).

endheader
time	pelvis_tilt	pelvis_list	pelvis_rotation	pelvis_tx	pelvis_ty	pelvis_tz	hip_flexion_r	hip_adduction_r	hip_rotation_r	knee_angle_r	knee_angle_r_beta	ankle_angle_r	subtalar_angle_r	mtp_angle_r	hip_flexion_l	hip_adduction_l	hip_rotation_l	knee_angle_l	knee_angle_l_beta	ankle_angle_l	subtalar_angle_l	mtp_angle_l
      7.50000000	    -15.28721231	      4.10464563	      3.23267654	      2.18264507	      0.89571629	      0.91511413	     37.96536503	     -5.81821935	      2.20418351	     95.54781593	      1.66762398	     -4.60382928	    -19.46704934	      0.00000000	     20.24837318	      8.44717925	     -2.40485697	     40.10252336	      0.69992107	     22.85962279	    -11.22081164	      0.00000000
      7.50666667	    -15.07142900	      3.30904759	      3.06142689	      2.18335083	      0.90053864	      0.91553184	     39.12819206	     -4.87243990	      1.83525873	     93.53322209	      1.63246269	     -3.69690990	    -19.34305841	      0.00000000	     17.53972803	      7.35502458	     -2.36880693	     38.18382249	      0.66643342	     21.64258492	    -10.28250047	      0.00000000
      7.51333333	    -14.90785479	      2.45860345	      2.86509226	      2.18423509	      0.90548926	      0.91596838	     40.17905984	     -3.87956640	      1.37995862	     91.19770309	      1.59170019	     -2.81806939	    -19.32358452	      0.00000000	     14.90285226	      6.16147103	     -2.50502736	     36.18179716	      0.63149149	     20.07269543	     -9.32321426	      0.00000000
      7.52000000	    -14.85958422	      1.67389534	      2.62905326	      2.18523071	      0.91036884	      0.91640300	     41.21618727	     -2.95280203	      0.94015212	     88.60577598	      1.54646253	     -1.97452260	    -19.44077104	      0.00000000	     12.39422935	      5.03105174	     -2.79772757	     34.08018581	      0.59481145	     18.11858243	     -8.40822025	      0.00000000
      7.52666667	    -15.31611103	      1.11939915	      2.24465188	      2.18597637	      0.91439433	      0.91704293	     42.77578410	     -2.14623679	      0.74746695	     85.91531169	      1.49950507	     -1.10651630	    -19.50462820	      0.00000000	     10.51929239	      4.10711695	     -3.49572191	     32.04772232	      0.55933827	     15.75996590	     -7.50550010	      0.00000000
      7.53333333	    -15.10359885	      0.18672424	      2.06140513	      2.18745506	      0.91961085	      0.91731130	     43.23464909	     -1.20676628	      0.00240630	     82.68680171	      1.44315694	     -0.36784227	    -19.90203508	      0.00000000	      7.86290873	      2.84703171	     -3.87960870	     29.82524890	      0.52054879	     13.30201786	     -6.58195124	      0.00000000
      7.54000000	    -15.59540090	     -0.29726885	      1.62509208	      2.18839814	      0.92348128	      0.91794635	     44.52262809	     -0.48610872	     -0.24242723	     79.50151335	      1.38756317	      0.39558972	    -20.21422473	      0.00000000	      6.07915064	      2.04857474	     -4.72960023	     27.73852286	      0.48412855	     10.48511820	     -5.68475688	      0.00000000
      7.54666667	    -16.04771643	     -0.80942050	      1.24249503	      2.18942635	      0.92734563	      0.91850189	     45.58750162	      0.18406478	     -0.63363836	     76.05056003	      1.32733267	      1.15045167	    -20.49659016	      0.00000000	      4.30854793	      1.27002666	     -5.47403997	     25.67968576	      0.44819507	      7.50874969	     -4.86652172	      0.00000000
      7.55333333	    -17.03127772	     -0.94064681	      0.68562826	      2.18997788	      0.93004685	      0.91934656	     47.24585747	      0.65047594	     -0.68774943	     72.60584090	      1.26721098	      1.97173035	    -20.56944881	      0.00000000	      3.26905388	      0.87609699	     -6.55046285	     23.88906716	      0.41694288	      4.46895272	     -3.84182441	      0.00000000
      7.56000000	    -17.47691919	     -1.26307106	      0.24382640	      2.19098622	      0.93352335	      0.92006967	     48.03716318	      1.19586251	     -1.02485682	     68.76369129	      1.20015282	      2.63636281	    -20.76250876	      0.00000000	      1.59990780	      0.36456346	     -7.22344491	     21.90529332	      0.38231949	      1.20218804	     -3.24192054	      0.00000000
      7.56666667	    -18.80332925	     -1.16875366	     -0.20495097	      2.19129991	      0.93530777	      0.92098135	     49.82428551	      1.38205471	     -1.17767778	     65.00755975	      1.13459596	      3.52074236	    -20.46706261	      0.00000000	      1.19631420	      0.24536767	     -7.97948525	     20.52319387	      0.35819731	     -1.47680276	     -2.01595789	      0.00000000
      7.57333333	    -19.87682573	     -0.94249157	     -0.76749714	      2.19152833	      0.93711470	      0.92214570	     51.21715546	      1.64061006	     -1.12881529	     61.07675159	      1.06599041	      4.27243931	    -19.97695563	      0.00000000	      0.59073107	      0.23457486	     -8.91343320	     19.21369373	      0.33534222	     -4.43144891	     -0.98450815	      0.00000000
      7.58000000	    -19.65514120	     -1.14745380	     -1.35027807	      2.19272067	      0.94062447	      0.92335744	     50.85300922	      2.21784601	     -1.51015100	     56.68335613	      0.98931120	      4.91158669	    -19.35608971	      0.00000000	     -1.67925984	     -0.05249096	     -9.25015935	     17.35132737	      0.30283779	     -7.69692787	     -0.90712830	      0.00000000
      7.58666667	    -20.69005856	     -0.79453272	     -1.84110733	      2.19284060	      0.94172646	      0.92477507	     51.96418931	      2.37642904	     -1.56558099	     52.52961253	      0.91681469	      5.71036064	    -18.25631742	      0.00000000	     -2.04829160	      0.08074711	     -9.71040682	     16.55988524	      0.28902452	     -9.94127391	     -0.03599207	      0.00000000
      7.59333333	    -20.38641407	     -1.14925086	     -2.09470695	      2.19412112	      0.94459247	      0.92577006	     51.23094300	      2.72526032	     -2.63862478	     47.97908723	      0.83739304	      6.79590354	    -16.07722282	      0.00000000	     -4.03791116	     -0.38224227	     -9.43279211	     15.44283898	      0.26952839	    -12.19244267	      0.18368001	      0.00000000
      7.60000000	    -21.14200031	     -0.75949129	     -2.55609653	      2.19419740	      0.94513513	      0.92750688	     51.83479894	      2.95800229	     -2.71798473	     43.76513908	      0.76384577	      7.66828519	    -14.35271010	      0.00000000	     -4.41073139	     -0.20761952	     -9.44013226	     15.27118144	      0.26653240	    -13.65595500	      0.68217063	      0.00000000
      7.60666667	    -20.29835883	     -1.54263999	     -2.48231228	      2.19598684	      0.94784897	      0.92824287	     50.21526498	      3.28063541	     -4.87504140	     39.19792747	      0.68413289	      9.16196356	    -10.48873440	      0.00000000	     -6.63614875	     -1.15544262	     -8.67034163	     14.96939174	      0.26126517	    -14.87191260	      0.84674807	      0.00000000
      7.61333333	    -20.05103038	     -1.91317393	     -2.49451215	      2.19702824	      0.94899973	      0.92940915	     49.34884053	      3.61687118	     -6.41364216	     34.95195859	      0.61002676	     10.45256262	     -7.07250854	      0.00000000	     -7.84469432	     -1.73774864	     -7.85550268	     15.42883361	      0.26928395	    -15.48137079	      0.85256158	      0.00000000
      7.62000000	    -19.60704907	     -2.32994134	     -2.50013409	      2.19807623	      0.94980815	      0.93065748	     48.25143754	      4.05269041	     -8.04121576	     30.97074364	      0.54054145	     11.85124392	     -3.33302739	      0.00000000	     -9.08122919	     -2.35341293	     -6.93789608	     16.31275934	      0.28471136	    -15.74352973	      0.68900626	      0.00000000
      7.62666667	    -19.23344174	     -2.71844367	     -2.49975941	      2.19892906	      0.94994784	      0.93194116	     47.25211910	      4.58760899	     -9.46911641	     27.32632844	      0.47693440	     13.15368154	      0.09779174	      0.00000000	     -9.96150020	     -2.95449116	     -6.02193885	     17.79612181	      0.31060092	    -15.58787910	      0.49012473	      0.00000000
      7.63333333	    -18.89912667	     -3.05939355	     -2.50759261	      2.19956034	      0.94947368	      0.93322160	     46.35130591	      5.19250813	    -10.58394311	     24.10590227	      0.42072736	     14.30991181	      2.98629308	      0.00000000	    -10.54910076	     -3.49129707	     -5.09610829	     19.79721424	      0.34552657	    -15.15074430	      0.23370995	      0.00000000
      7.64000000	    -18.81972625	     -3.22847190	     -2.60776736	      2.19978866	      0.94811106	      0.93448602	     45.82350464	      5.80729909	    -11.10171668	     21.39805775	      0.37346656	     15.22666607	      4.92579082	      0.00000000	    -10.59318574	     -3.81888560	     -4.24008810	     22.32103054	      0.38957548	    -14.63006382	     -0.22198504	      0.00000000
      7.64666667	    -18.36656332	     -3.62972889	     -2.72052084	      2.20016172	      0.94678803	      0.93553898	     44.92531423	      6.56158256	    -11.76503476	     19.22209032	      0.33548877	     16.01781441	      6.67477077	      0.00000000	    -10.86214131	     -4.39316069	     -3.75163963	     25.23486016	      0.44043140	    -13.98080294	     -0.18302709	      0.00000000
      7.65333333	    -18.23994360	     -3.79955828	     -2.94143761	      2.20009989	      0.94458322	      0.93650291	     44.53105974	      7.17356549	    -11.98704341	     17.74668739	      0.30973813	     16.50842972	      7.46934371	      0.00000000	    -10.56819145	     -4.64957470	     -3.18504636	     28.49579243	      0.49734540	    -13.60298865	     -0.74296769	      0.00000000
      7.66000000	    -17.93912139	     -4.14027453	     -3.10564399	      2.20004806	      0.94223165	      0.93718940	     44.02322436	      7.79926546	    -12.37723215	     16.89166265	      0.29481513	     16.65568940	      7.75280175	      0.00000000	    -10.23226500	     -5.17424450	     -3.03197648	     32.16432646	      0.56137340	    -13.31225530	     -0.56962562	      0.00000000
      7.66666667	    -17.59039083	     -4.49745156	     -3.41967403	      2.19988231	      0.93954182	      0.93784689	     43.60414869	      8.43577936	    -12.72190836	     16.79869832	      0.29319260	     16.55727174	      7.58755015	      0.00000000	     -9.82791868	     -5.72000548	     -3.21372547	     36.03600391	      0.62894692	    -13.28647303	     -0.39977433	      0.00000000
      7.67333333	    -17.24164870	     -4.87166830	     -3.73373863	      2.19963910	      0.93651329	      0.93830998	     43.30921539	      8.95960653	    -13.20892599	     17.42397257	      0.30410569	     16.12663949	      7.05841471	      0.00000000	     -9.27928723	     -6.27903827	     -3.39615832	     40.08225960	      0.69956740	    -13.74133100	     -0.57791659	      0.00000000
      7.68000000	    -16.54553299	     -5.27500806	     -4.18424741	      2.19945902	      0.93357853	      0.93872635	     42.78091238	      9.46420015	    -13.70170043	     18.81652613	      0.32841033	     15.39925043	      6.26527892	      0.00000000	     -9.09911086	     -6.81643920	     -3.80017218	     44.06065322	      0.76900347	    -14.75763963	     -1.20886546	      0.00000000
